HIERARCHY
ROOT Hips
{
    OFFSET 0.000000 0.000000 0.000000
    CHANNELS 6 Xposition Yposition Zposition Zrotation Xrotation Yrotation
    JOINT Spine
    {
        OFFSET -0.000000 14.517291 0.000000
        CHANNELS 3 Zrotation Xrotation Yrotation
        JOINT Spine1
        {
            OFFSET -0.000000 37.558300 0.000000
            CHANNELS 3 Zrotation Xrotation Yrotation
            JOINT Neck
            {
                OFFSET -0.000000 37.404057 3.400369
                CHANNELS 3 Zrotation Xrotation Yrotation
                JOINT Head
                {
                    OFFSET -0.000000 24.785618 -3.540803
                    CHANNELS 3 Zrotation Xrotation Yrotation
                    End Site
                    {
                        OFFSET -0.000000 35.408028 0.000000
                    }
                }
            }
            JOINT LeftShoulder
            {
                OFFSET 6.992933 33.973492 -0.192664
                CHANNELS 3 Zrotation Xrotation Yrotation
                JOINT LeftArm
                {
                    OFFSET 21.527611 0.000000 0.000000
                    CHANNELS 3 Zrotation Xrotation Yrotation
                    JOINT LeftForeArm
                    {
                        OFFSET 56.353916 0.000000 0.000000
                        CHANNELS 3 Zrotation Xrotation Yrotation
                        JOINT LeftHand
                        {
                            OFFSET 47.774071 0.000000 0.000000
                            CHANNELS 3 Zrotation Xrotation Yrotation
                            End Site
                            {
                                OFFSET 26.556021 0.000000 0.000000
                            }
                        }
                    }
                }
            }
            JOINT RightShoulder
            {
                OFFSET -7.065357 33.973492 -0.192664
                CHANNELS 3 Zrotation Xrotation Yrotation
                JOINT RightArm
                {
                    OFFSET -21.527611 0.000000 0.000000
                    CHANNELS 3 Zrotation Xrotation Yrotation
                    JOINT RightForeArm
                    {
                        OFFSET -56.353916 0.000000 0.000000
                        CHANNELS 3 Zrotation Xrotation Yrotation
                        JOINT RightHand
                        {
                            OFFSET -47.774071 0.000000 0.000000
                            CHANNELS 3 Zrotation Xrotation Yrotation
                            End Site
                            {
                                OFFSET -26.556021 0.000000 0.000000
                            }
                        }
                    }
                }
            }
        }
    }
    JOINT LeftUpLeg
    {
        OFFSET 17.704014 0.000000 0.000000
        CHANNELS 3 Zrotation Xrotation Yrotation
        JOINT LeftLeg
        {
            OFFSET -0.000000 -81.181816 0.000000
            CHANNELS 3 Zrotation Xrotation Yrotation
            JOINT LeftFoot
            {
                OFFSET -0.000000 -62.821102 0.000000
                CHANNELS 3 Zrotation Xrotation Yrotation
                JOINT LeftToeBase
                {
                    OFFSET -0.000000 -11.507608 26.556021
                    CHANNELS 3 Zrotation Xrotation Yrotation
                    End Site
                    {
                        OFFSET -0.000000 0.000000 7.081605
                    }
                }
            }
        }
    }
    JOINT RightUpLeg
    {
        OFFSET -17.704014 0.000000 0.000000
        CHANNELS 3 Zrotation Xrotation Yrotation
        JOINT RightLeg
        {
            OFFSET -0.000000 -81.181816 0.000000
            CHANNELS 3 Zrotation Xrotation Yrotation
            JOINT RightFoot
            {
                OFFSET -0.000000 -62.821102 0.000000
                CHANNELS 3 Zrotation Xrotation Yrotation
                JOINT RightToeBase
                {
                    OFFSET -0.000000 -11.507608 26.556021
                    CHANNELS 3 Zrotation Xrotation Yrotation
                    End Site
                    {
                        OFFSET -0.000000 0.000000 7.081605
                    }
                }
            }
        }
    }
}
MOTION
Frames:    12
Frame Time:    0.008333
46.466358    150.892075    -91.339027    0.034512    -1.741042    30.005959    0.571737    -1.547269    -3.463351    -10.544227    -0.166690    -1.169233    14.894214    3.369410    1.670632    4.536743    0.276084    0.599128    15.221482    -5.112525    -16.922808    -19.072865    -34.988773    -33.602650    -13.781688    -45.275097    -94.457710    -34.476940    -46.216984    -41.979290    -14.923403    -0.191973    -6.762237    23.357477    19.830048    11.045534    11.182101    12.228870    2.366104    10.623406    13.222445    13.385910    -0.602956    -6.945103    1.247715    -17.139326    44.590412    -16.070322    24.226604    -26.398121    44.698071    0.000000    0.000000    0.000000    3.148626    -33.286530    -9.076423    12.758081    17.618023    -16.356300    -11.273997    18.146027    -8.725863    0.000000    0.000000    0.000000    
46.509087    150.875824    -91.231651    -0.026736    -1.738870    30.070162    0.656154    -1.529510    -3.471805    -10.618148    -0.117214    -1.167958    15.005212    3.288555    1.680226    4.409072    0.227699    0.568722    15.314014    -5.080565    -16.884832    -19.236059    -35.021664    -33.716919    -13.724283    -45.258480    -94.440834    -34.482883    -46.150558    -41.983208    -14.854562    -0.238807    -6.838681    23.321783    19.901749    11.022207    11.133951    12.203517    2.449622    10.665393    13.188001    13.309071    -0.597435    -6.953113    1.117782    -17.108881    44.623974    -16.063356    24.287231    -26.434275    44.784435    0.000000    0.000000    0.000000    3.151443    -33.366024    -8.840787    12.871032    17.746902    -16.619764    -11.272336    18.022263    -8.765065    0.000000    0.000000    0.000000    
46.552555    150.863525    -91.132294    -0.078302    -1.745447    30.133615    0.720257    -1.491805    -3.480773    -10.621870    -0.098076    -1.169394    15.029716    3.254518    1.689534    4.322537    0.160340    0.561805    15.295165    -5.060685    -16.889378    -19.629543    -35.637787    -33.941177    -14.140227    -44.455227    -94.528488    -34.064671    -45.904598    -41.667290    -14.844057    -0.228255    -6.860708    23.304083    19.888447    11.001769    11.155881    12.220748    2.402629    10.601067    13.207546    13.371871    -0.605653    -6.957594    0.976617    -17.077654    44.660713    -16.035320    24.329897    -26.466276    44.873375    0.000000    0.000000    0.000000    3.134797    -33.432281    -8.672875    12.980450    17.878555    -16.879837    -11.273792    17.908363    -8.747249    0.000000    0.000000    0.000000    
46.590515    150.849426    -91.042908    -0.135090    -1.750799    30.190966    0.779772    -1.461700    -3.487799    -10.636605    -0.066829    -1.168987    15.148764    3.203419    1.708156    4.147943    0.111147    0.537358    15.313287    -5.034423    -16.887344    -19.726849    -35.613808    -34.021374    -14.115557    -44.485569    -94.559700    -33.997013    -45.966839    -41.561626    -14.793757    -0.288414    -6.871019    23.263596    19.981644    10.959812    11.165850    12.216741    2.313358    10.597964    13.215091    13.411160    -0.607289    -6.976552    0.843949    -17.050932    44.713306    -15.996707    24.375660    -26.499996    44.953358    0.000000    0.000000    0.000000    3.052985    -33.512615    -8.313543    13.278792    17.986816    -17.232386    -11.229151    17.846474    -8.888116    0.000000    0.000000    0.000000    
46.626808    150.838135    -90.960655    -0.190838    -1.760750    30.234987    0.835755    -1.421183    -3.491140    -10.633459    -0.056652    -1.169289    15.214758    3.218369    1.711979    4.039426    -0.001518    0.523328    15.316813    -4.989947    -16.894241    -19.813145    -35.641468    -34.071117    -14.148825    -44.438614    -94.603531    -33.901951    -45.997738    -41.501892    -14.765176    -0.315453    -6.831601    23.234856    20.033300    10.865088    11.185630    12.240076    2.288674    10.656667    13.245216    13.390991    -0.603347    -6.991738    0.686606    -17.059668    44.753780    -15.924519    24.427572    -26.516211    45.028629    0.000000    0.000000    0.000000    3.028383    -33.595673    -8.199863    13.383915    18.151390    -17.347851    -11.138217    17.787676    -8.945533    0.000000    0.000000    0.000000    
46.659584    150.827377    -90.889046    -0.252554    -1.769643    30.274021    0.896345    -1.380717    -3.470544    -10.626055    -0.027999    -1.159857    15.259184    3.209184    1.709633    3.964525    -0.122213    0.508351    15.330234    -4.952983    -16.892080    -19.708881    -35.269714    -34.046078    -13.886540    -44.891766    -94.567337    -34.005333    -46.169941    -41.619362    -14.740734    -0.316160    -6.822616    23.189373    19.866337    10.811463    11.347467    12.336822    2.166319    10.636041    13.345054    13.360508    -0.591545    -7.015505    0.552300    -17.074577    44.793106    -15.812248    24.460821    -26.552000    45.071442    0.000000    0.000000    0.000000    2.996651    -33.686848    -8.081933    13.512220    18.316839    -17.413546    -11.021710    17.761940    -9.063525    0.000000    0.000000    0.000000    
46.686493    150.815720    -90.816376    -0.320145    -1.779843    30.315769    0.945767    -1.355497    -3.447571    -10.588319    0.026677    -1.147261    15.286801    3.169332    1.697365    3.902110    -0.223224    0.480916    15.333525    -4.950710    -16.894363    -19.794312    -35.274429    -34.128189    -13.910473    -44.875504    -94.571838    -33.992832    -46.173870    -41.632992    -14.754747    -0.350032    -6.862203    23.170609    19.904600    10.785544    11.386989    12.312020    2.071334    10.663152    13.329562    13.334564    -0.558824    -7.034600    0.430543    -17.091455    44.826530    -15.772951    24.509106    -26.580332    45.142502    0.000000    0.000000    0.000000    2.966873    -33.782990    -8.008044    13.628986    18.500788    -17.419533    -10.922364    17.739218    -9.172523    0.000000    0.000000    0.000000    
46.708225    150.801010    -90.746483    -0.392151    -1.788621    30.360960    0.984328    -1.330448    -3.422476    -10.542046    0.059013    -1.135959    15.362102    3.173718    1.694889    3.789148    -0.344806    0.456860    15.353087    -4.923301    -16.937815    -19.858070    -35.226330    -34.190327    -13.833241    -44.948055    -94.532440    -34.016441    -46.159149    -41.679462    -14.742689    -0.382378    -6.885683    23.165028    20.197731    10.704860    11.228656    12.178306    2.073800    10.831459    13.214756    13.296803    -0.513009    -7.059042    0.345721    -17.103561    44.869217    -15.763124    24.580151    -26.596872    45.218983    0.000000    0.000000    0.000000    2.929681    -33.873493    -7.972074    13.753031    18.676350    -17.394310    -10.811469    17.708204    -9.283869    0.000000    0.000000    0.000000    
46.732735    150.784897    -90.675888    -0.454820    -1.802301    30.398041    1.016546    -1.301284    -3.402477    -10.490364    0.080029    -1.127459    15.364377    3.218349    1.675796    3.789797    -0.490861    0.448015    15.355642    -4.902720    -16.973619    -20.177067    -35.768047    -34.381554    -14.268900    -44.231041    -94.606606    -33.742100    -45.948380    -41.453644    -14.732009    -0.358478    -6.859082    23.129793    20.077578    10.645284    11.307255    12.237002    1.974415    10.859708    13.279285    13.239865    -0.469438    -7.063803    0.302077    -17.079334    44.906052    -15.808778    24.649433    -26.621632    45.283661    0.000000    0.000000    0.000000    2.891953    -33.951412    -7.977415    13.866137    18.855543    -17.377392    -10.744975    17.662935    -9.328080    0.000000    0.000000    0.000000    
46.753460    150.767868    -90.608116    -0.513111    -1.815537    30.424131    1.034404    -1.280250    -3.378855    -10.420805    0.118195    -1.116140    15.357212    3.272165    1.659706    3.785503    -0.646681    0.444068    15.363189    -4.876120    -16.983650    -20.210163    -35.742756    -34.423801    -14.286530    -44.227654    -94.623825    -33.616528    -46.017029    -41.378674    -14.735185    -0.368710    -6.824255    23.095577    20.012262    10.604306    11.391764    12.259330    1.836378    10.853459    13.311953    13.230923    -0.422539    -7.062107    0.264608    -17.076981    44.928516    -15.834497    24.724539    -26.642294    45.346863    0.000000    0.000000    0.000000    2.852173    -34.025711    -7.959263    13.995119    19.028971    -17.363153    -10.669852    17.621010    -9.401773    0.000000    0.000000    0.000000    
46.775040    150.753372    -90.547089    -0.565881    -1.817349    30.449043    1.054651    -1.274720    -3.365619    -10.375592    0.185329    -1.105714    15.358135    3.271919    1.659869    3.796227    -0.764240    0.449297    15.382516    -4.886817    -16.947605    -20.210526    -35.650902    -34.460873    -14.266895    -44.280247    -94.599831    -33.659611    -46.034996    -41.380867    -14.729532    -0.408600    -6.841613    23.076868    20.228510    10.578110    11.269245    12.153037    1.841130    10.910805    13.214025    13.229969    -0.393047    -7.067261    0.256226    -17.026459    44.953320    -15.892836    24.760139    -26.682283    45.395294    0.000000    0.000000    0.000000    2.805151    -34.112133    -7.996799    14.107357    19.224644    -17.190807    -10.560306    17.592077    -9.605598    0.000000    0.000000    0.000000    
46.796967    150.743744    -90.492020    -0.611669    -1.801727    30.463121    1.059611    -1.278074    -3.344250    -10.327111    0.222202    -1.095377    15.315651    3.273867    1.663170    3.868158    -0.819127    0.470430    15.387215    -4.894905    -16.948195    -19.901155    -35.025089    -34.301575    -13.872628    -45.000229    -94.502815    -33.994106    -46.245285    -41.665302    -14.754427    -0.461279    -6.809404    23.087933    20.230251    10.510536    11.294675    12.162894    1.778965    10.859846    13.223670    13.230514    -0.378338    -7.087700    0.282616    -16.938557    44.992615    -15.975062    24.793476    -26.707970    45.403320    0.000000    0.000000    0.000000    2.754230    -34.163197    -8.063636    14.196861    19.316036    -17.360308    -10.558615    17.525793    -9.396205    0.000000    0.000000    0.000000    
